<svg xmlns:xlink="http://www.w3.org/1999/xlink" fill="none" xmlns="http://www.w3.org/2000/svg" viewBox="0 0 348 522" width="355"  height="533" ><g clip-path="url(#a)" fill="none"><path d="M6.636 198.123H1.32v-50.728h1.975c8.581 0 12.454 5.012 12.454 10.859 0 3.114-1.442 6.227-4.1 8.202 7.822 1.519 12.986 7.898 12.986 15.72 0 8.733-6.76 15.947-17.999 15.947Zm-1.519-47.007v14.656c4.025 0 6.835-2.961 6.835-7.138 0-4.025-2.05-6.987-6.835-7.519v.001Zm1.975 18.454H5.117v24.756h1.291c8.961 0 14.277-5.24 14.277-12.15 0-7.29-5.315-12.606-13.593-12.606ZM53.718 198.882c-14.428 0-25.82-11.695-25.82-26.123 0-14.429 11.392-26.124 25.82-26.124 14.505 0 25.897 11.695 25.897 26.124 0 14.428-11.392 26.123-25.896 26.123Zm0-48.374c-11.922 0-21.947 9.872-21.947 22.251 0 12.378 10.025 22.251 21.947 22.251 12 0 22.023-9.873 22.023-22.251 0-12.379-10.024-22.251-22.023-22.251ZM109.082 198.882c-14.429 0-25.82-11.695-25.82-26.123 0-14.429 11.391-26.124 25.82-26.124 14.505 0 25.896 11.695 25.896 26.124 0 14.428-11.391 26.123-25.896 26.123Zm0-48.374c-11.923 0-21.947 9.872-21.947 22.251 0 12.378 10.024 22.251 21.947 22.251 11.999 0 22.023-9.873 22.023-22.251 0-12.379-10.024-22.251-22.023-22.251ZM144.174 170.633l16.859-23.238h4.708l-17.542 23.693 19.213 27.035H162.4l-18.226-25.896v25.896h-3.873v-50.728h3.873v23.238ZM182.977 198.807c-5.543 0-10.556-2.658-13.289-7.442v-5.772c3.873 6.987 8.201 9.569 13.289 9.569 5.772 0 11.315-4.405 11.315-11.164 0-5.467-3.569-8.353-8.429-11.543l-4.936-3.189c-4.557-2.962-8.126-6.455-8.126-11.543 0-6.531 5.696-10.936 11.771-10.936 3.797 0 6.607 1.443 8.733 3.266l.076 4.556c-2.582-2.81-5.543-4.328-8.809-4.328-4.177 0-7.898 2.961-7.898 7.29 0 3.342 2.127 5.62 5.848 8.05l5.468 3.493c5.999 3.949 10.176 7.974 10.176 14.809 0 8.05-6.759 14.884-15.189 14.884ZM23.268 110.125H8.915l-4.253 14.809H.79l15.188-51.412h.304l15.113 51.412H27.52l-4.253-14.809Zm-13.29-3.645h12.226L16.13 85.293 9.978 106.48ZM42.48 104.809l14.81 20.125h-5.013l-13.593-19.061v19.061h-3.797V74.205h.987c11.087 0 17.163 7.518 17.163 15.872 0 7.062-4.405 12.454-10.556 14.732Zm-3.796-26.655v24.225c6.227-.835 10.556-5.923 10.556-12.15 0-6.151-4.329-11.24-10.556-12.075ZM57.219 99.57c0-14.277 11.011-24.985 26.275-25.365v3.873c-12.986.228-22.326 9.493-22.326 21.491 0 11.999 9.34 21.264 22.326 21.492v3.873c-15.264-.38-26.275-11.087-26.275-25.365ZM110.069 124.934v-24.833H92.451v24.833h-3.873V74.205h3.873v22.1h17.618v-22.1h3.873v50.729h-3.873ZM121.918 124.934V74.205h3.873v50.729h-3.873ZM145.835 78.002v46.932h-3.797V78.002h-10.1v-3.797h23.997v3.797h-10.1ZM161.559 124.934V74.205h16.707v3.797h-12.91v18.226h10.783v3.797h-10.783v21.112h12.91v3.797h-16.707ZM181.305 99.57c0-14.277 11.011-24.985 26.275-25.365v3.873c-12.986.228-22.326 9.493-22.326 21.491 0 11.999 9.34 21.264 22.326 21.492v3.873c-15.264-.38-26.275-11.087-26.275-25.365ZM225.124 78.002v46.932h-3.798V78.002h-10.099v-3.797h23.997v3.797h-10.1ZM253.065 125.541c-6.607 0-11.999-5.316-11.999-11.998V74.205h3.873v39.338c0 4.48 3.722 8.125 8.126 8.125 4.329 0 8.05-3.645 8.05-8.125V74.205h3.873v39.338c0 6.682-5.316 11.998-11.923 11.998ZM280.028 104.809l14.808 20.125h-5.012l-13.593-19.061v19.061h-3.797V74.205h.987c11.088 0 17.163 7.518 17.163 15.872 0 7.062-4.405 12.454-10.556 14.732Zm-3.797-26.655v24.225c6.227-.835 10.555-5.923 10.555-12.15 0-6.151-4.328-11.24-10.555-12.075ZM319.819 110.125h-14.353l-4.253 14.809h-3.873l15.188-51.412h.304l15.112 51.412h-3.873l-4.252-14.809Zm-13.29-3.645h12.227l-6.076-21.187-6.151 21.187ZM331.742 124.934V74.205h3.797v46.932h10.48v3.797h-14.277ZM3.75.822 15.445 41.3l5.316-20.125L15.445.822h3.797l3.493 14.125L26.23.822h3.797L24.71 21.174 30.026 41.3 41.645.822h3.873L30.253 52.994h-.151l-7.367-25.668-7.366 25.668h-.152L-.047.822H3.75ZM49.238 51.551V.822h3.873v50.73h-3.873ZM60.484 51.551V.822h3.797v46.932h10.48v3.797H60.484ZM78.856 51.551V.822h3.797v46.932h10.48v3.797H78.855ZM97.691 51.551V.822h3.873v50.73h-3.873ZM128.139 36.743h-14.353l-4.253 14.808h-3.873L120.849.14h.303l15.113 51.412h-3.873l-4.253-14.808Zm-13.29-3.646h12.226L121 11.91l-6.151 21.187ZM140.062.139h.304l17.011 31.895L174.464.14h.304V51.55h-3.797V14.34l-13.442 24.605h-.228L143.784 14.34V51.55h-3.722V.14ZM205.911 52.237c-5.544 0-10.556-2.658-13.29-7.443v-5.771c3.873 6.986 8.202 9.569 13.29 9.569 5.772 0 11.315-4.405 11.315-11.164 0-5.468-3.569-8.353-8.43-11.543l-4.936-3.19c-4.556-2.961-8.125-6.454-8.125-11.543 0-6.53 5.695-10.935 11.77-10.935 3.798 0 6.607 1.443 8.734 3.265l.076 4.557c-2.582-2.81-5.544-4.329-8.81-4.329-4.176 0-7.897 2.962-7.897 7.29 0 3.342 2.126 5.62 5.847 8.05l5.468 3.494c6 3.949 10.176 7.974 10.176 14.808 0 8.05-6.759 14.885-15.188 14.885ZM232.717 4.62V51.55h-3.797V4.62h-7.139V.822h18.074V4.62h-7.138ZM267.039 52.31c-14.429 0-25.82-11.695-25.82-26.124 0-14.429 11.391-26.123 25.82-26.123 14.505 0 25.896 11.694 25.896 26.123 0 14.43-11.391 26.124-25.896 26.124Zm0-48.374c-11.923 0-21.947 9.872-21.947 22.25 0 12.379 10.024 22.251 21.947 22.251 11.999 0 22.023-9.872 22.023-22.25 0-12.38-10.024-22.251-22.023-22.251ZM310.706 52.159c-6.607 0-11.999-5.316-11.999-12V.823h3.873V40.16c0 4.48 3.721 8.125 8.126 8.125 4.329 0 8.05-3.645 8.05-8.125V.822h3.873V40.16c0 6.683-5.316 11.999-11.923 11.999ZM338.885 4.62V51.55h-3.797V4.62h-7.139V.822h18.074V4.62h-7.138Z" fill="#000"></path><path d="M1.328 344.458v-50.729H19.63v3.796H5.125v18.227h12.379v3.796H5.125v21.112H19.63v3.798H1.328ZM38.16 345.141c-5.543 0-10.555-2.658-13.289-7.442v-5.772c3.873 6.987 8.202 9.569 13.29 9.569 5.771 0 11.315-4.405 11.315-11.164 0-5.467-3.57-8.353-8.43-11.543L36.11 315.6c-4.556-2.962-8.125-6.455-8.125-11.543 0-6.531 5.695-10.936 11.77-10.936 3.798 0 6.608 1.443 8.734 3.265l.076 4.557c-2.582-2.81-5.544-4.328-8.81-4.328-4.176 0-7.897 2.961-7.897 7.29 0 3.341 2.126 5.619 5.847 8.05l5.468 3.493c6 3.949 10.176 7.974 10.176 14.809 0 8.049-6.759 14.884-15.188 14.884ZM68.843 297.525v46.932h-3.797v-46.932h-10.1v-3.796h23.997v3.796h-10.1ZM79.852 339.672h4.784v4.784h-4.784v-4.784ZM240.697 344.379V297.22h-6.302l2.429-3.417h7.747v50.576h-3.874ZM281.403 317.879c-1.595 2.658-3.494 4.86-5.392 7.518l-13.517 19.061h-4.633l14.809-20.504c-1.443.608-2.962.835-4.785.835-8.657 0-15.947-7.062-15.947-15.947 0-8.809 7.29-16.024 16.099-16.024 8.885 0 16.024 7.139 16.024 16.176 0 3.113-.912 6.075-2.658 8.885Zm-13.67-21.112c-6.455 0-11.847 5.392-11.847 12.075 0 6.683 5.468 12.15 12.151 12.15 6.607 0 12.151-5.468 12.151-11.998 0-6.911-5.316-12.227-12.455-12.227ZM318.234 294.714l-22.403 49.741h-4.1L313.07 297.6h-25.136v-3.797h30.3v.911ZM338.358 332.157v12.302h-3.873v-12.302h-22.403v-.076l25.744-38.958h.38v35.161h7.822v3.873h-7.67Zm-3.873-3.873V304.21l-15.872 24.074h15.872Z" fill="#EE3124"></path></g><defs><clipPath id="a"><path fill="#fff" d="M0 0h348v522H0z"></path></clipPath></defs></svg>