<svg xmlns:xlink="http://www.w3.org/1999/xlink" viewBox="0 0 644 38" fill="none" xmlns="http://www.w3.org/2000/svg" width="644"  height="38" >
			<path d="m3.173 1.096 8.162 28.249 3.71-14.045-3.71-14.204h2.65l2.438 9.858 2.438-9.858h2.65L17.801 15.3l3.71 14.045L29.62 1.096h2.703L21.67 37.507h-.106l-5.141-17.914-5.141 17.914h-.106L.523 1.096h2.65ZM34.9747 36.5V1.096h2.703V36.5h-2.703Zm8.8481 0V1.096h2.65V33.85h7.314v2.65h-9.964Zm13.25 0V1.096h2.65V33.85h7.314v2.65h-9.964Zm13.356 0V1.096h2.703V36.5h-2.703Zm21.2501-10.335h-10.017L78.6939 36.5h-2.703l10.6-35.881h.212L97.3499 36.5h-2.703l-2.968-10.335Zm-9.275-2.544h8.533l-4.24-14.787-4.293 14.787ZM100.084.619h.212l11.872 22.26L124.093.619h.211V36.5h-2.649V10.53l-9.381 17.172h-.159l-9.434-17.172V36.5h-2.597V.619Zm56.797 25.97c0 5.618-4.717 10.388-10.6 10.388-3.869 0-7.367-1.855-9.275-5.194v-4.028c2.703 4.876 5.724 6.678 9.275 6.678 4.028 0 7.897-3.074 7.897-7.791 0-3.816-2.491-5.83-5.883-8.056l-3.445-2.226c-3.18-2.067-5.671-4.505-5.671-8.056 0-4.558 3.975-7.632 8.215-7.632 2.65 0 4.611 1.007 6.095 2.279l.053 3.18c-1.802-1.961-3.869-3.021-6.148-3.021-2.915 0-5.512 2.067-5.512 5.088 0 2.332 1.484 3.922 4.081 5.618l3.816 2.438c4.187 2.756 7.102 5.565 7.102 10.335Zm8.768-22.843V36.5h-2.65V3.746h-4.982v-2.65h12.614v2.65h-4.982Zm42.223 15.052c0 10.07-7.95 18.232-18.073 18.232-10.07 0-18.02-8.162-18.02-18.232 0-10.07 7.95-18.232 18.02-18.232 10.123 0 18.073 8.162 18.073 18.232Zm-33.39 0c0 8.639 6.996 15.529 15.317 15.529 8.374 0 15.37-6.89 15.37-15.529s-6.996-15.529-15.37-15.529c-8.321 0-15.317 6.89-15.317 15.529Zm53.628 9.752c0 4.664-3.71 8.374-8.321 8.374s-8.374-3.71-8.374-8.374V1.096h2.703V28.55c0 3.127 2.597 5.671 5.671 5.671 3.021 0 5.618-2.544 5.618-5.671V1.096h2.703V28.55Zm12.174-24.804V36.5h-2.65V3.746h-4.982v-2.65h12.614v2.65h-4.982Zm29.959 22.419h-10.017L257.258 36.5h-2.703l10.6-35.881h.212L275.914 36.5h-2.703l-2.968-10.335Zm-9.275-2.544h8.533l-4.24-14.787-4.293 14.787Zm30.347-11.448c0 4.929-3.074 8.692-7.367 10.282L294.283 36.5h-3.498l-9.487-13.303V36.5h-2.65V1.096h.689c7.738 0 11.978 5.247 11.978 11.077Zm-10.017 8.586c4.346-.583 7.367-4.134 7.367-8.48 0-4.293-3.021-7.844-7.367-8.427v16.907ZM313.042 36.5c-10.653-.265-18.338-7.738-18.338-17.702 0-9.964 7.685-17.437 18.338-17.702v2.703c-9.063.159-15.582 6.625-15.582 14.999s6.519 14.84 15.582 14.999V36.5Zm19.837 0V19.169h-12.296V36.5h-2.703V1.096h2.703v15.423h12.296V1.096h2.703V36.5h-2.703Zm8.864 0V1.096h2.703V36.5h-2.703Zm14.996-32.754V36.5h-2.65V3.746h-4.982v-2.65h12.614v2.65h-4.982Zm9.535 32.754V1.096h11.66v2.65h-9.01v12.72h7.526v2.65h-7.526V33.85h9.01v2.65h-11.66Zm33.307 0c-10.653-.265-18.338-7.738-18.338-17.702 0-9.964 7.685-17.437 18.338-17.702v2.703c-9.063.159-15.582 6.625-15.582 14.999s6.519 14.84 15.582 14.999V36.5Zm11.918-32.754V36.5h-2.65V3.746h-4.982v-2.65h12.614v2.65h-4.982Zm26.23 24.804c0 4.664-3.71 8.374-8.321 8.374s-8.374-3.71-8.374-8.374V1.096h2.703V28.55c0 3.127 2.597 5.671 5.671 5.671 3.021 0 5.618-2.544 5.618-5.671V1.096h2.703V28.55Zm18.693-16.377c0 4.929-3.074 8.692-7.367 10.282L459.39 36.5h-3.498l-9.487-13.303V36.5h-2.65V1.096h.689c7.738 0 11.978 5.247 11.978 11.077Zm-10.017 8.586c4.346-.583 7.367-4.134 7.367-8.48 0-4.293-3.021-7.844-7.367-8.427v16.907Zm29.834 5.406h-10.017L463.254 36.5h-2.703l10.6-35.881h.212L481.91 36.5h-2.703l-2.968-10.335Zm-9.275-2.544h8.533l-4.24-14.787-4.293 14.787Zm17.68 12.879V1.096h2.65V33.85h7.314v2.65h-9.964Zm37.544-11.13c0 6.095-4.717 11.13-12.561 11.13h-3.71V1.096h1.378c5.989 0 8.692 3.498 8.692 7.579 0 2.173-1.007 4.346-2.862 5.724 5.459 1.06 9.063 5.512 9.063 10.971Zm-13.621 8.48h.901c6.254 0 9.964-3.657 9.964-8.48 0-5.088-3.71-8.798-9.487-8.798h-1.378V33.85Zm0-19.928c2.809 0 4.77-2.067 4.77-4.982 0-2.809-1.431-4.876-4.77-5.247v10.229Zm51.724 4.876c0 10.07-7.95 18.232-18.073 18.232-10.07 0-18.02-8.162-18.02-18.232 0-10.07 7.95-18.232 18.02-18.232 10.123 0 18.073 8.162 18.073 18.232Zm-33.39 0c0 8.639 6.996 15.529 15.317 15.529 8.374 0 15.37-6.89 15.37-15.529s-6.996-15.529-15.37-15.529c-8.321 0-15.317 6.89-15.317 15.529Zm72.105 0c0 10.07-7.95 18.232-18.073 18.232-10.07 0-18.02-8.162-18.02-18.232 0-10.07 7.95-18.232 18.02-18.232 10.123 0 18.073 8.162 18.073 18.232Zm-33.39 0c0 8.639 6.996 15.529 15.317 15.529 8.374 0 15.37-6.89 15.37-15.529s-6.996-15.529-15.37-15.529c-8.321 0-15.317 6.89-15.317 15.529Zm40.36-1.484 11.766-16.218h3.286l-12.243 16.536L622.194 36.5h-3.498l-12.72-18.073V36.5h-2.703V1.096h2.703v16.218Zm37.584 9.275c0 5.618-4.717 10.388-10.6 10.388-3.869 0-7.367-1.855-9.275-5.194v-4.028c2.703 4.876 5.724 6.678 9.275 6.678 4.028 0 7.897-3.074 7.897-7.791 0-3.816-2.491-5.83-5.883-8.056l-3.445-2.226c-3.18-2.067-5.671-4.505-5.671-8.056 0-4.558 3.975-7.632 8.215-7.632 2.65 0 4.611 1.007 6.095 2.279l.053 3.18c-1.802-1.961-3.869-3.021-6.148-3.021-2.915 0-5.512 2.067-5.512 5.088 0 2.332 1.484 3.922 4.081 5.618l3.816 2.438c4.187 2.756 7.102 5.565 7.102 10.335Z" fill="#000"></path>
		</svg>